<svg id="visual" viewBox="0 0 900 600" width="900" height="600" xmlns="http://www.w3.org/2000/svg" xmlns:xlink="http://www.w3.org/1999/xlink" version="1.1"><rect x="0" y="0" width="900" height="600" fill="#ffffff"></rect><path d="M0 400L21.5 396C43 392 86 384 128.8 377.5C171.7 371 214.3 366 257.2 374.8C300 383.7 343 406.3 385.8 412.7C428.7 419 471.3 409 514.2 398.3C557 387.7 600 376.3 642.8 379.2C685.7 382 728.3 399 771.2 403.8C814 408.7 857 401.3 878.5 397.7L900 394L900 601L878.5 601C857 601 814 601 771.2 601C728.3 601 685.7 601 642.8 601C600 601 557 601 514.2 601C471.3 601 428.7 601 385.8 601C343 601 300 601 257.2 601C214.3 601 171.7 601 128.8 601C86 601 43 601 21.5 601L0 601Z" fill="#fa7268"></path><path d="M0 465L21.5 454C43 443 86 421 128.8 414.7C171.7 408.3 214.3 417.7 257.2 430.2C300 442.7 343 458.3 385.8 459.8C428.7 461.3 471.3 448.7 514.2 449.3C557 450 600 464 642.8 458.5C685.7 453 728.3 428 771.2 415.7C814 403.3 857 403.7 878.5 403.8L900 404L900 601L878.5 601C857 601 814 601 771.2 601C728.3 601 685.7 601 642.8 601C600 601 557 601 514.2 601C471.3 601 428.7 601 385.8 601C343 601 300 601 257.2 601C214.3 601 171.7 601 128.8 601C86 601 43 601 21.5 601L0 601Z" fill="#ef5f67"></path><path d="M0 510L21.5 503.3C43 496.7 86 483.3 128.8 478.8C171.7 474.3 214.3 478.7 257.2 480.5C300 482.3 343 481.7 385.8 474C428.7 466.3 471.3 451.7 514.2 445.8C557 440 600 443 642.8 452.5C685.7 462 728.3 478 771.2 476.5C814 475 857 456 878.5 446.5L900 437L900 601L878.5 601C857 601 814 601 771.2 601C728.3 601 685.7 601 642.8 601C600 601 557 601 514.2 601C471.3 601 428.7 601 385.8 601C343 601 300 601 257.2 601C214.3 601 171.7 601 128.8 601C86 601 43 601 21.5 601L0 601Z" fill="#e34c67"></path><path d="M0 543L21.5 533.7C43 524.3 86 505.7 128.8 496.8C171.7 488 214.3 489 257.2 490.3C300 491.7 343 493.3 385.8 496C428.7 498.7 471.3 502.3 514.2 503.8C557 505.3 600 504.7 642.8 503C685.7 501.3 728.3 498.7 771.2 495.8C814 493 857 490 878.5 488.5L900 487L900 601L878.5 601C857 601 814 601 771.2 601C728.3 601 685.7 601 642.8 601C600 601 557 601 514.2 601C471.3 601 428.7 601 385.8 601C343 601 300 601 257.2 601C214.3 601 171.7 601 128.8 601C86 601 43 601 21.5 601L0 601Z" fill="#d53867"></path><path d="M0 532L21.5 532.3C43 532.7 86 533.3 128.8 538.5C171.7 543.7 214.3 553.3 257.2 552C300 550.7 343 538.3 385.8 536.2C428.7 534 471.3 542 514.2 548.3C557 554.7 600 559.3 642.8 562.2C685.7 565 728.3 566 771.2 566.8C814 567.7 857 568.3 878.5 568.7L900 569L900 601L878.5 601C857 601 814 601 771.2 601C728.3 601 685.7 601 642.8 601C600 601 557 601 514.2 601C471.3 601 428.7 601 385.8 601C343 601 300 601 257.2 601C214.3 601 171.7 601 128.8 601C86 601 43 601 21.5 601L0 601Z" fill="#c62368"></path></svg>