<svg id="visual" viewBox="0 0 900 600" width="900" height="600" xmlns="http://www.w3.org/2000/svg" xmlns:xlink="http://www.w3.org/1999/xlink" version="1.1"><rect x="0" y="0" width="900" height="600" fill="#ffffff"></rect><path d="M0 233L25 237.7C50 242.3 100 251.7 150 272C200 292.3 250 323.7 300 346.5C350 369.3 400 383.7 450 395.5C500 407.3 550 416.7 600 400C650 383.3 700 340.7 750 343.7C800 346.7 850 395.3 875 419.7L900 444L900 601L875 601C850 601 800 601 750 601C700 601 650 601 600 601C550 601 500 601 450 601C400 601 350 601 300 601C250 601 200 601 150 601C100 601 50 601 25 601L0 601Z" fill="#fa7268"></path><path d="M0 312L25 333.5C50 355 100 398 150 421.7C200 445.3 250 449.7 300 431.8C350 414 400 374 450 365.5C500 357 550 380 600 369.5C650 359 700 315 750 296.2C800 277.3 850 283.7 875 286.8L900 290L900 601L875 601C850 601 800 601 750 601C700 601 650 601 600 601C550 601 500 601 450 601C400 601 350 601 300 601C250 601 200 601 150 601C100 601 50 601 25 601L0 601Z" fill="#eb5967"></path><path d="M0 394L25 402.3C50 410.7 100 427.3 150 428.5C200 429.7 250 415.3 300 411.3C350 407.3 400 413.7 450 432.5C500 451.3 550 482.7 600 473.3C650 464 700 414 750 389.3C800 364.7 850 365.3 875 365.7L900 366L900 601L875 601C850 601 800 601 750 601C700 601 650 601 600 601C550 601 500 601 450 601C400 601 350 601 300 601C250 601 200 601 150 601C100 601 50 601 25 601L0 601Z" fill="#da3f67"></path><path d="M0 568L25 547.7C50 527.3 100 486.7 150 474.2C200 461.7 250 477.3 300 483.7C350 490 400 487 450 478.7C500 470.3 550 456.7 600 464.8C650 473 700 503 750 512.2C800 521.3 850 509.7 875 503.8L900 498L900 601L875 601C850 601 800 601 750 601C700 601 650 601 600 601C550 601 500 601 450 601C400 601 350 601 300 601C250 601 200 601 150 601C100 601 50 601 25 601L0 601Z" fill="#c62368"></path></svg>