<svg id="visual" viewBox="0 0 900 600" width="900" height="600" xmlns="http://www.w3.org/2000/svg" xmlns:xlink="http://www.w3.org/1999/xlink" version="1.1"><rect x="0" y="0" width="900" height="600" fill="#FA7268"></rect><path d="M0 138L25 170.5C50 203 100 268 150 259.7C200 251.3 250 169.7 300 166.2C350 162.7 400 237.3 450 237.8C500 238.3 550 164.7 600 121.8C650 79 700 67 750 95.7C800 124.3 850 193.7 875 228.3L900 263L900 601L875 601C850 601 800 601 750 601C700 601 650 601 600 601C550 601 500 601 450 601C400 601 350 601 300 601C250 601 200 601 150 601C100 601 50 601 25 601L0 601Z" fill="#ffffff" stroke-linecap="round" stroke-linejoin="miter"></path></svg>