<svg id="visual" viewBox="0 0 900 600" width="900" height="600" xmlns="http://www.w3.org/2000/svg" xmlns:xlink="http://www.w3.org/1999/xlink" version="1.1"><rect x="0" y="0" width="900" height="600" fill="#002233"></rect><path d="M0 345L21.5 321.2C43 297.3 86 249.7 128.8 250.3C171.7 251 214.3 300 257.2 332.3C300 364.7 343 380.3 385.8 361.7C428.7 343 471.3 290 514.2 300.7C557 311.3 600 385.7 642.8 387.5C685.7 389.3 728.3 318.7 771.2 294.8C814 271 857 294 878.5 305.5L900 317L900 601L878.5 601C857 601 814 601 771.2 601C728.3 601 685.7 601 642.8 601C600 601 557 601 514.2 601C471.3 601 428.7 601 385.8 601C343 601 300 601 257.2 601C214.3 601 171.7 601 128.8 601C86 601 43 601 21.5 601L0 601Z" fill="#0066FF" stroke-linecap="round" stroke-linejoin="miter"></path></svg>